<?xml version="1.0" encoding="UTF-8"?>
<svg width="1600" height="400" viewBox="0 0 1600 400" xmlns="http://www.w3.org/2000/svg" role="img" aria-label="Soft gradient banner">
  <defs>
    <linearGradient id="bg" x1="0" y1="0" x2="1" y2="1">
      <stop offset="0%" stop-color="#fef4de"/>
      <stop offset="55%" stop-color="#f4fbfb"/>
      <stop offset="100%" stop-color="#e6f2f2"/>
    </linearGradient>
    <radialGradient id="glow1" cx="12%" cy="18%" r="35%">
      <stop offset="0%" stop-color="#ffe6bf" stop-opacity="0.85"/>
      <stop offset="100%" stop-color="#ffe6bf" stop-opacity="0"/>
    </radialGradient>
    <radialGradient id="glow2" cx="88%" cy="10%" r="40%">
      <stop offset="0%" stop-color="#d5f0f2" stop-opacity="0.8"/>
      <stop offset="100%" stop-color="#d5f0f2" stop-opacity="0"/>
    </radialGradient>
  </defs>
  <rect width="1600" height="400" fill="url(#bg)"/>
  <rect width="1600" height="400" fill="url(#glow1)"/>
  <rect width="1600" height="400" fill="url(#glow2)"/>
  <g opacity="0.22" fill="#2d6a6f">
    <circle cx="210" cy="290" r="26"/>
    <circle cx="520" cy="120" r="18"/>
    <circle cx="980" cy="310" r="22"/>
    <circle cx="1240" cy="140" r="16"/>
    <circle cx="1420" cy="260" r="28"/>
  </g>
  <g opacity="0.25" fill="#e39c44">
    <circle cx="380" cy="70" r="12"/>
    <circle cx="760" cy="210" r="10"/>
    <circle cx="1120" cy="60" r="14"/>
  </g>
  <path d="M0 330 C220 300 380 320 520 310 C740 294 980 320 1220 300 C1400 286 1520 300 1600 292 L1600 400 L0 400 Z" fill="#ffffff" opacity="0.55"/>
</svg>
